<?xml version="1.0" encoding="utf-8"?>
<!-- Generator: Adobe Illustrator 26.0.0, SVG Export Plug-In . SVG Version: 6.00 Build 0)  -->
<svg version="1.1" id="Layer_1" xmlns="http://www.w3.org/2000/svg" xmlns:xlink="http://www.w3.org/1999/xlink" x="0px" y="0px"
	 viewBox="0 0 3000 3000" style="enable-background:new 0 0 3000 3000;" xml:space="preserve">
<style type="text/css">
	.st0{fill:#1A1A24;}
	.st1{fill:url(#SVGID_1_);}
	.st2{fill:url(#SVGID_00000036210160688702631330000018400122631063325887_);}
	.st3{fill:url(#SVGID_00000158007845538334220570000009228610885209203870_);}
	.st4{fill:url(#SVGID_00000103265573994033062210000015206732808968546194_);}
	.st5{fill:url(#SVGID_00000016072576280959433560000004121172976233239460_);}
	.st6{fill:url(#SVGID_00000112619550347435190570000003710364281134003338_);}
	.st7{enable-background:new    ;}
	.st8{fill:#F0F0F8;}
</style>
<rect class="st0" width="3000" height="3000"/>
<g>
	<g>
		<g>
			
				<linearGradient id="SVGID_1_" gradientUnits="userSpaceOnUse" x1="257.005" y1="4148.1753" x2="2743.1084" y2="4148.1753" gradientTransform="matrix(1 0 0 -1 0 5442)">
				<stop  offset="0" style="stop-color:#FFFFFF"/>
				<stop  offset="1" style="stop-color:#000000"/>
			</linearGradient>
			<path class="st1" d="M1500,2007.9c-89.3,0.2-178.1-5.8-266.7-17c-129.2-16.3-255.7-44.4-378.8-87.2
				c-102.6-35.7-200.4-81.3-291.4-141c-63.1-41.4-121-88.9-171.1-145.6c-51.4-58.1-91.9-122.6-115.3-197.2
				c-22.3-71.1-25.8-143-9.8-215.9c13.8-63.1,40.9-120.3,77.4-173.2c48.6-70.5,109.9-128.4,178.9-178.6
				c82.5-60.1,172.4-107,267.1-144.7c100.5-39.9,204.2-69.2,310.4-89.9c155.3-30.1,312-41.8,470.1-36.7
				c107.4,3.5,213.9,15,319.5,34.9c82.3,15.6,163.3,36.4,242.7,63.3c114.7,39,223.8,89.6,323.8,158.7
				c73.3,50.7,138.9,109.5,191.4,182.1c39,53.9,68.3,112.5,83.6,177.7c15.7,66.9,15.1,133.8-2.1,200.4
				c-18.9,73.1-54.7,137.4-101.9,195.8c-50,61.9-109.5,113.5-175,158.2c-84,57.4-174.5,102.1-269.6,137.9
				c-105.2,39.6-213.3,67.9-324,87c-84.1,14.5-168.8,24.2-254.2,27.8C1570,2006.3,1535,2006.9,1500,2007.9z M1523.2,713.2
				c-82.6,0.5-142,3.4-201.3,9.4c-72.6,7.4-144.4,19.5-215.3,36.7c-96.9,23.4-190.4,55.9-279.2,101.4
				c-69.8,35.7-134.7,78.4-191.8,132.5c-47.1,44.6-86.7,94.9-113.5,154.4c-38.1,84.3-43.3,170.5-13.3,258.4
				c19.3,56.6,51.1,105.8,90.5,150.3c49.7,56,108.4,101,172.4,139.2c88.3,52.7,183,90.3,281.7,118.2c62.8,17.8,126.6,31,191.2,40.8
				c64.3,9.8,128.9,15.7,193.8,17.8c59.8,1.9,119.6,1.3,179.4-2.9c49.3-3.5,98.3-8.8,147-16.4c68.3-10.6,135.7-25.4,201.9-45.3
				c83.5-25,164-57.2,240-100c67.2-37.8,129.2-82.6,182.2-139.1c42.9-45.7,77.7-96.6,99.5-155.8c19.6-53.2,26.2-108.1,18.7-164.4
				c-7.6-56.1-28.4-107.4-58.9-154.9c-37.1-57.7-84.7-105.6-138.9-147.2c-73-56.1-153.8-98.3-239.2-131.7
				c-136.7-53.6-279-83-425-95.1C1596.9,715.7,1548.4,714.6,1523.2,713.2z"/>
			
				<linearGradient id="SVGID_00000141418346759178704900000010133840786379001499_" gradientUnits="userSpaceOnUse" x1="723.0156" y1="4148.7119" x2="2276.0752" y2="4148.7119" gradientTransform="matrix(1 0 0 -1 0 5442)">
				<stop  offset="0" style="stop-color:#FFFFFF"/>
				<stop  offset="1" style="stop-color:#000000"/>
			</linearGradient>
			<path style="fill:url(#SVGID_00000141418346759178704900000010133840786379001499_);" d="M1498.9,1738.9
				c-100,1.4-198.8-9.6-296.1-32.7c-87.4-20.7-171.4-50.7-249.7-95.5c-57.4-32.8-109.6-71.9-152.5-122.7
				c-28-33.1-50.2-69.6-63.8-111.1c-23.3-71.1-16.6-139.9,16.6-206.5c25-50.1,61.1-91.3,103.6-127.2c48.5-41,102.6-73,160.2-99.2
				c73.4-33.3,149.9-56.5,228.9-72.1c54.1-10.7,108.5-18.3,163.6-21.3c33.3-1.8,66.8-3.3,100.1-3.2c55.4,0.1,110.6,4.2,165.5,11.6
				c62.9,8.5,124.8,21.2,185.5,39.7c84.5,25.7,164.8,60.5,237.7,111.1c47.7,33.2,90,71.9,123.1,120c25.6,37.2,43.5,77.6,51,122.3
				c8.1,48.6,1.8,95.7-16.4,141.3c-20.8,52.2-54.2,95.5-94.8,133.6c-42.3,39.8-90.3,71.3-141.7,97.9
				c-85.7,44.4-176.8,72.9-271.3,91.4c-62.2,12.2-125.1,19.5-188.4,22.3C1539.7,1739.7,1519.3,1738.9,1498.9,1738.9z M1499.1,1606.7
				c28-1.6,55.9-2.6,83.8-4.9c68.8-5.6,136-19.3,201.1-42.3c51.6-18.2,100.4-41.7,144.6-74.4c36-26.6,66.9-57.7,89-97.1
				c16.3-29.1,25.6-60.4,25.8-93.8c0.2-33.7-9-65.3-25.3-94.8c-20.7-37.4-49.7-67.5-83.4-93.3c-54.3-41.5-115.6-69.2-180.6-88.8
				c-98.8-29.7-199.9-40.4-302.8-35.2c-58,3-115.2,11-171.5,25.3c-63.9,16.2-124.9,39.5-181.1,74.5c-37,23.1-70.3,50.5-97.1,85.2
				c-23.1,30-39.3,63.2-44.6,101c-6.1,43.9,3.6,84.7,25.5,122.8c21,36.5,49.8,65.8,83.2,91c50.3,38.1,106.7,64.2,166.5,83.4
				C1318.9,1593.5,1408.1,1605.6,1499.1,1606.7z"/>
			
				<linearGradient id="SVGID_00000015345133506322291170000014966158238554721409_" gradientUnits="userSpaceOnUse" x1="1189.2504" y1="4148.4189" x2="1810.0367" y2="4148.4189" gradientTransform="matrix(1 0 0 -1 0 5442)">
				<stop  offset="0" style="stop-color:#FFFFFF"/>
				<stop  offset="1" style="stop-color:#000000"/>
			</linearGradient>
			<path style="fill:url(#SVGID_00000015345133506322291170000014966158238554721409_);" d="M1499.1,1472
				c-62.3-0.9-123.7-10.1-182.1-34.3c-32.9-13.7-63.2-31.5-88.3-57.1c-13.7-14-24.9-29.7-31.9-48.2c-12.8-33.9-9.1-66.2,9.4-96.9
				c16.6-27.7,40.6-47.9,67.8-64.4c42.8-25.9,89.7-40.2,138.7-48.7c42.6-7.3,85.4-8.9,128.3-5.6c58.8,4.6,115.6,17.7,168.3,45.3
				c29,15.2,55.1,34.2,75.1,60.6c13.1,17.3,22,36.4,24.8,58.1c3.5,27.5-4.2,52.2-19,75.1c-16.1,24.8-38.1,43.4-63,58.7
				c-39.8,24.5-83.3,39-129,47.8C1565.7,1468.6,1532.8,1471.4,1499.1,1472z"/>
		</g>
		<g>
			
				<linearGradient id="SVGID_00000178183866226669995450000015228024992235180673_" gradientUnits="userSpaceOnUse" x1="776.248" y1="3460.6863" x2="2209.8926" y2="4894.3301" gradientTransform="matrix(1 0 0 -1 7 5471)">
				<stop  offset="0" style="stop-color:#A78BFA"/>
				<stop  offset="1" style="stop-color:#7C6FCD"/>
			</linearGradient>
			<path style="fill:url(#SVGID_00000178183866226669995450000015228024992235180673_);" d="M1500,2007.9
				c-89.3,0.2-178.1-5.8-266.7-17c-129.2-16.3-255.7-44.4-378.8-87.2c-102.6-35.7-200.4-81.3-291.4-141
				c-63.1-41.4-121-88.9-171.1-145.6c-51.4-58.1-91.9-122.6-115.3-197.2c-22.3-71.1-25.8-143-9.8-215.9
				c13.8-63.1,40.9-120.3,77.4-173.2c48.6-70.5,109.9-128.4,178.9-178.6c82.5-60.1,172.4-107,267.1-144.7
				c100.5-39.9,204.2-69.2,310.4-89.9c155.3-30.1,312-41.8,470.1-36.7c107.4,3.5,213.9,15,319.5,34.9
				c82.3,15.6,163.3,36.4,242.7,63.3c114.7,39,223.8,89.6,323.8,158.7c73.3,50.7,138.9,109.5,191.4,182.1
				c39,53.9,68.3,112.5,83.6,177.7c15.7,66.9,15.1,133.8-2.1,200.4c-18.9,73.1-54.7,137.4-101.9,195.8
				c-50,61.9-109.5,113.5-175,158.2c-84,57.4-174.5,102.1-269.6,137.9c-105.2,39.6-213.3,67.9-324,87
				c-84.1,14.5-168.8,24.2-254.2,27.8C1570,2006.3,1535,2006.9,1500,2007.9z M1523.2,713.2c-82.6,0.5-142,3.4-201.3,9.4
				c-72.6,7.4-144.4,19.5-215.3,36.7c-96.9,23.4-190.4,55.9-279.2,101.4c-69.8,35.7-134.7,78.4-191.8,132.5
				c-47.1,44.6-86.7,94.9-113.5,154.4c-38.1,84.3-43.3,170.5-13.3,258.4c19.3,56.6,51.1,105.8,90.5,150.3
				c49.7,56,108.4,101,172.4,139.2c88.3,52.7,183,90.3,281.7,118.2c62.8,17.8,126.6,31,191.2,40.8c64.3,9.8,128.9,15.7,193.8,17.8
				c59.8,1.9,119.6,1.3,179.4-2.9c49.3-3.5,98.3-8.8,147-16.4c68.3-10.6,135.7-25.4,201.9-45.3c83.5-25,164-57.2,240-100
				c67.2-37.8,129.2-82.6,182.2-139.1c42.9-45.7,77.7-96.6,99.5-155.8c19.6-53.2,26.2-108.1,18.7-164.4
				c-7.6-56.1-28.4-107.4-58.9-154.9c-37.1-57.7-84.7-105.6-138.9-147.2c-73-56.1-153.8-98.3-239.2-131.7
				c-136.7-53.6-279-83-425-95.1C1596.9,715.7,1548.4,714.6,1523.2,713.2z"/>
			
				<linearGradient id="SVGID_00000090978355370256823040000008862289497196317588_" gradientUnits="userSpaceOnUse" x1="776.004" y1="3460.8342" x2="2209.5703" y2="4894.3999" gradientTransform="matrix(1 0 0 -1 7 5471)">
				<stop  offset="0" style="stop-color:#A78BFA"/>
				<stop  offset="1" style="stop-color:#7C6FCD"/>
			</linearGradient>
			<path style="fill:url(#SVGID_00000090978355370256823040000008862289497196317588_);" d="M1498.9,1738.9
				c-100,1.4-198.8-9.6-296.1-32.7c-87.4-20.7-171.4-50.7-249.7-95.5c-57.4-32.8-109.6-71.9-152.5-122.7
				c-28-33.1-50.2-69.6-63.8-111.1c-23.3-71.1-16.6-139.9,16.6-206.5c25-50.1,61.1-91.3,103.6-127.2c48.5-41,102.6-73,160.2-99.2
				c73.4-33.3,149.9-56.5,228.9-72.1c54.1-10.7,108.5-18.3,163.6-21.3c33.3-1.8,66.8-3.3,100.1-3.2c55.4,0.1,110.6,4.2,165.5,11.6
				c62.9,8.5,124.8,21.2,185.5,39.7c84.5,25.7,164.8,60.5,237.7,111.1c47.7,33.2,90,71.9,123.1,120c25.6,37.2,43.5,77.6,51,122.3
				c8.1,48.6,1.8,95.7-16.4,141.3c-20.8,52.2-54.2,95.5-94.8,133.6c-42.3,39.8-90.3,71.3-141.7,97.9
				c-85.7,44.4-176.8,72.9-271.3,91.4c-62.2,12.2-125.1,19.5-188.4,22.3C1539.7,1739.7,1519.3,1738.9,1498.9,1738.9z M1499.1,1606.7
				c28-1.6,55.9-2.6,83.8-4.9c68.8-5.6,136-19.3,201.1-42.3c51.6-18.2,100.4-41.7,144.6-74.4c36-26.6,66.9-57.7,89-97.1
				c16.3-29.1,25.6-60.4,25.8-93.8c0.2-33.7-9-65.3-25.3-94.8c-20.7-37.4-49.7-67.5-83.4-93.3c-54.3-41.5-115.6-69.2-180.6-88.8
				c-98.8-29.7-199.9-40.4-302.8-35.2c-58,3-115.2,11-171.5,25.3c-63.9,16.2-124.9,39.5-181.1,74.5c-37,23.1-70.3,50.5-97.1,85.2
				c-23.1,30-39.3,63.2-44.6,101c-6.1,43.9,3.6,84.7,25.5,122.8c21,36.5,49.8,65.8,83.2,91c50.3,38.1,106.7,64.2,166.5,83.4
				C1318.9,1593.5,1408.1,1605.6,1499.1,1606.7z"/>
			
				<linearGradient id="SVGID_00000114060269624979753800000015890518719905036947_" gradientUnits="userSpaceOnUse" x1="775.948" y1="3460.8901" x2="2209.5142" y2="4894.4561" gradientTransform="matrix(1 0 0 -1 7 5471)">
				<stop  offset="0" style="stop-color:#A78BFA"/>
				<stop  offset="1" style="stop-color:#7C6FCD"/>
			</linearGradient>
			<path style="fill:url(#SVGID_00000114060269624979753800000015890518719905036947_);" d="M1499.1,1472
				c-62.3-0.9-123.7-10.1-182.1-34.3c-32.9-13.7-63.2-31.5-88.3-57.1c-13.7-14-24.9-29.7-31.9-48.2c-12.8-33.9-9.1-66.2,9.4-96.9
				c16.6-27.7,40.6-47.9,67.8-64.4c42.8-25.9,89.7-40.2,138.7-48.7c42.6-7.3,85.4-8.9,128.3-5.6c58.8,4.6,115.6,17.7,168.3,45.3
				c29,15.2,55.1,34.2,75.1,60.6c13.1,17.3,22,36.4,24.8,58.1c3.5,27.5-4.2,52.2-19,75.1c-16.1,24.8-38.1,43.4-63,58.7
				c-39.8,24.5-83.3,39-129,47.8C1565.7,1468.6,1532.8,1471.4,1499.1,1472z"/>
		</g>
	</g>
	<g class="st7">
		<path class="st8" d="M398.7,2446.3c-39.8,0-73.8-6.2-102-18.7s-49.8-30.3-64.7-53.4c-15-23.1-22.4-50.9-22.4-83.2
			c0-32.7,7.5-60.6,22.4-83.7c15-23.1,36.5-40.9,64.7-53.4s62.2-18.7,102-18.7c40.1,0,74.1,6.2,102.2,18.7
			c28.1,12.5,49.6,30.3,64.5,53.4c15,23.1,22.4,51,22.4,83.7c0,32.4-7.5,60.1-22.4,83.2c-15,23.1-36.5,40.9-64.5,53.4
			C472.8,2440.1,438.8,2446.3,398.7,2446.3z M398.7,2393.1c24.7,0,46.3-3.7,65-11.1c18.6-7.4,33.3-18.7,43.9-33.8s16-34.2,16-57.3
			s-5.3-42.2-16-57.3c-10.6-15.1-25.3-26.4-43.9-34c-18.7-7.6-40.3-11.3-65-11.3c-24.4,0-46.1,3.8-65.2,11.3
			c-19.1,7.6-34.1,18.9-44.9,34s-16.2,34.2-16.2,57.3s5.4,42.2,16.2,57.3c10.8,15.1,25.7,26.4,44.9,33.8
			C352.6,2389.4,374.3,2393.1,398.7,2393.1z"/>
		<path class="st8" d="M640.1,2210.5h57.3l2.8,61v261.3h-60.1V2210.5z M807.5,2445.9c-20.3,0-37.7-3.6-52-10.9s-26-16.8-34.9-28.7
			s-15.6-24.9-19.9-39.1c-4.3-14.2-6.5-28-6.5-41.6c0-17,2.1-32.7,6.2-47.2c4.2-14.5,10.7-27.2,19.7-38.2
			c8.9-10.9,20.6-19.5,34.9-25.7c14.3-6.2,31.8-9.2,52.5-9.2c23.1,0,43.9,5.1,62.4,15.3s33.2,24.3,44.2,42.3
			c10.9,18,16.4,38.9,16.4,62.7c0,24.4-5.5,45.6-16.6,63.6s-25.9,32-44.4,41.9C851,2440.9,830.3,2445.9,807.5,2445.9z M788.1,2399.2
			c16.3,0,30.6-3.1,42.8-9.2c12.2-6.2,21.6-14.7,28.2-25.7c6.6-10.9,9.9-23.8,9.9-38.6c0-22.2-7-40.1-21-53.6
			c-14-13.6-34-20.3-59.9-20.3c-16.3,0-31.2,2.9-44.6,8.8c-13.4,5.9-24,14.3-31.7,25.2s-11.6,24.3-11.6,40
			c0,14.8,3.5,27.7,10.6,38.6c7.1,10.9,17.3,19.5,30.5,25.7C754.6,2396.1,770.2,2399.2,788.1,2399.2z"/>
		<path class="st8" d="M1184.4,2364h58.3c-2.5,15.7-9,29.8-19.7,42.1c-10.6,12.3-25.1,22-43.2,29.1c-18.2,7.1-40.4,10.6-66.6,10.6
			c-29.3,0-55.2-4.7-77.7-14.1c-22.5-9.4-40.1-23-52.7-40.9c-12.6-17.9-19-39.5-19-64.7c0-25.3,6.2-46.9,18.5-65
			c12.3-18,29.5-31.8,51.6-41.4c22-9.6,47.9-14.3,77.5-14.3c30.2,0,55.3,4.8,75.4,14.3c20,9.6,34.9,24,44.6,43.2
			c9.7,19.3,13.8,43.9,12.3,73.8h-219.2c1.5,11.7,5.9,22.4,13.2,31.9c7.2,9.6,17.1,17.1,29.6,22.7c12.5,5.5,27.4,8.3,44.6,8.3
			c19.1,0,35.1-3.3,47.9-9.9C1172.4,2383.1,1180.7,2374.5,1184.4,2364z M1108.5,2251.2c-22.2,0-40.2,4.9-54.1,14.6
			c-13.9,9.7-22.8,21.7-26.8,35.8h156.3c-1.5-15.4-8.9-27.7-22-36.8C1148.9,2255.7,1131,2251.2,1108.5,2251.2z"/>
		<path class="st8" d="M1288.4,2210.5h60.1v229.8h-60.1V2210.5z M1455.4,2205.4c14.2,0,27.3,1.8,39.3,5.5s22.5,9.4,31.4,17.1
			c8.9,7.7,15.9,17.5,20.8,29.4s7.4,26,7.4,42.3v140.6h-60.1v-129.9c0-19.4-4.7-33.7-14.1-42.8s-24.7-13.6-46-13.6
			c-16,0-30.5,3.1-43.5,9.2c-12.9,6.2-23.4,14-31.4,23.4s-12.6,19.2-13.9,29.4l-0.5-23.6c1.5-10.8,5.1-21.3,10.6-31.4
			s13-19.5,22.4-28s20.6-15.2,33.5-20.1C1424.4,2207.9,1439,2205.4,1455.4,2205.4z"/>
		<path class="st8" d="M1965.9,2332.6c-2.8,24-11.3,44.6-25.4,61.5c-14.2,17-33.5,29.9-57.8,38.8c-24.4,8.9-53.3,13.4-86.9,13.4
			c-28.1,0-53.7-3.2-77-9.7s-43.3-16.2-60.1-29.1c-16.8-12.9-29.8-29.1-39.1-48.3c-9.2-19.3-13.9-41.9-13.9-67.7s4.6-48.6,13.9-68
			c9.2-19.4,22.3-35.7,39.1-48.8c16.8-13.1,36.8-23,60.1-29.6c23.3-6.6,48.9-9.9,77-9.9c33.6,0,62.7,4.6,87.2,13.9
			s43.9,22.4,58,39.5c14.2,17.1,22.5,37.8,25,62.2h-61c-4-12.9-10.7-24.1-20.1-33.5s-21.5-16.6-36.3-21.5s-32.4-7.4-52.7-7.4
			c-25.3,0-47.5,3.9-66.6,11.8c-19.1,7.9-33.9,19.4-44.4,34.7s-15.7,34.1-15.7,56.7c0,22.2,5.2,40.9,15.7,56s25.3,26.6,44.4,34.5
			s41.3,11.8,66.6,11.8c20.3,0,37.8-2.5,52.5-7.4c14.6-4.9,26.7-12,36.1-21.3c9.4-9.2,16.3-20,20.6-32.4h60.8V2332.6z"/>
		<path class="st8" d="M2153.7,2445.9c-29,0-54.5-4.6-76.5-13.9c-22-9.2-39.2-22.7-51.6-40.5c-12.3-17.7-18.5-39.5-18.5-65.4
			s6.2-47.9,18.5-65.9s29.5-31.7,51.6-40.9c22-9.2,47.6-13.9,76.5-13.9c29,0,54.3,4.6,76.1,13.9c21.7,9.2,38.8,22.9,51.1,40.9
			s18.5,40,18.5,65.9s-6.2,47.7-18.5,65.4s-29.4,31.2-51.1,40.5C2208,2441.2,2182.6,2445.9,2153.7,2445.9z M2153.7,2399.6
			c16,0,30.4-2.8,43.2-8.6c12.8-5.7,22.9-14,30.3-25c7.4-10.9,11.1-24.3,11.1-40s-3.7-29.2-11.1-40.5c-7.4-11.3-17.4-19.8-30.1-25.7
			c-12.6-5.9-27.1-8.8-43.5-8.8c-16,0-30.5,2.9-43.5,8.8c-12.9,5.9-23.2,14.3-30.8,25.4c-7.6,11.1-11.3,24.7-11.3,40.7
			c0,15.7,3.7,29.1,11.1,40c7.4,10.9,17.6,19.3,30.5,25C2122.7,2396.8,2137.3,2399.6,2153.7,2399.6z"/>
		<path class="st8" d="M2343.7,2210.5h60.1v229.8h-60.1V2210.5z M2492.2,2260c-17.3,0-32.2,3.3-44.9,9.9
			c-12.6,6.6-22.8,14.7-30.5,24.3s-13.1,18.8-16.2,27.7l-0.5-25.4c0.3-3.7,1.5-9.2,3.7-16.4s5.4-15.1,9.7-23.6s10-16.6,17.1-24.5
			s15.7-14.3,25.9-19.2s22-7.4,35.6-7.4L2492.2,2260L2492.2,2260z"/>
		<path class="st8" d="M2738.7,2364h58.3c-2.5,15.7-9,29.8-19.7,42.1c-10.6,12.3-25.1,22-43.2,29.1c-18.2,7.1-40.4,10.6-66.6,10.6
			c-29.3,0-55.2-4.7-77.7-14.1c-22.5-9.4-40.1-23-52.7-40.9c-12.6-17.9-19-39.5-19-64.7c0-25.3,6.2-46.9,18.5-65
			c12.3-18,29.5-31.8,51.6-41.4c22-9.6,47.9-14.3,77.5-14.3c30.2,0,55.3,4.8,75.4,14.3c20,9.6,34.9,24,44.6,43.2
			c9.7,19.3,13.8,43.9,12.3,73.8h-219.2c1.5,11.7,5.9,22.4,13.2,31.9c7.2,9.6,17.1,17.1,29.6,22.7c12.5,5.5,27.4,8.3,44.6,8.3
			c19.1,0,35.1-3.3,47.9-9.9C2726.7,2383.1,2735,2374.5,2738.7,2364z M2662.8,2251.2c-22.2,0-40.2,4.9-54.1,14.6
			c-13.9,9.7-22.8,21.7-26.8,35.8h156.3c-1.5-15.4-8.9-27.7-22-36.8C2703.1,2255.7,2685.3,2251.2,2662.8,2251.2z"/>
	</g>
</g>
</svg>
