<?xml version="1.0" encoding="utf-8"?>
<!-- Generator: Adobe Illustrator 26.0.0, SVG Export Plug-In . SVG Version: 6.00 Build 0)  -->
<svg version="1.1" id="Layer_1" xmlns="http://www.w3.org/2000/svg" xmlns:xlink="http://www.w3.org/1999/xlink" x="0px" y="0px"
	 viewBox="0 0 3085.4 500" style="enable-background:new 0 0 3085.4 500;" xml:space="preserve">
<style type="text/css">
	.st0{fill:url(#SVGID_1_);}
	.st1{fill:url(#SVGID_00000032628554239926495120000003536931349925220228_);}
	.st2{fill:url(#SVGID_00000168091872672581756690000001876585582666840496_);}
	.st3{fill:url(#SVGID_00000134935304506542741300000005061639673486606475_);}
	.st4{fill:url(#SVGID_00000052090691811748183480000008179234362015624335_);}
	.st5{fill:url(#SVGID_00000089536000199433535440000009952630547403310768_);}
	.st6{enable-background:new    ;}
	.st7{fill:#F0F0F8;}
</style>
<g>
	<g>
		<g>
			<linearGradient id="SVGID_1_" gradientUnits="userSpaceOnUse" x1="48.9188" y1="259.8621" x2="617.319" y2="259.8621">
				<stop  offset="0" style="stop-color:#FFFFFF"/>
				<stop  offset="1" style="stop-color:#000000"/>
			</linearGradient>
			<path class="st0" d="M333.1,423.1c-20.4,0-40.7-1.3-61-3.9c-29.5-3.7-58.5-10.1-86.6-19.9c-23.5-8.2-45.8-18.6-66.6-32.2
				c-14.4-9.5-27.7-20.3-39.1-33.3c-11.8-13.3-21-28-26.4-45.1c-5.1-16.3-5.9-32.7-2.2-49.4c3.2-14.4,9.4-27.5,17.7-39.6
				c11.1-16.1,25.1-29.4,40.9-40.8c18.9-13.7,39.4-24.5,61.1-33.1c23-9.1,46.7-15.8,70.9-20.5c35.5-6.9,71.3-9.6,107.5-8.4
				c24.5,0.8,48.9,3.4,73,8c18.8,3.6,37.3,8.3,55.5,14.5c26.2,8.9,51.2,20.5,74,36.3c16.8,11.6,31.8,25,43.8,41.6
				c8.9,12.3,15.6,25.7,19.1,40.6c3.6,15.3,3.5,30.6-0.5,45.8c-4.3,16.7-12.5,31.4-23.3,44.8c-11.4,14.1-25,25.9-40,36.2
				c-19.2,13.1-39.9,23.4-61.6,31.5c-24,9-48.8,15.5-74.1,19.9c-19.2,3.3-38.6,5.5-58.1,6.4C349.1,422.8,341.1,422.9,333.1,423.1z
				 M338.4,127.2c-18.9,0.1-32.5,0.8-46,2.1c-16.6,1.7-33,4.5-49.2,8.4c-22.1,5.4-43.5,12.8-63.8,23.2
				c-15.9,8.2-30.8,17.9-43.8,30.3c-10.8,10.2-19.8,21.7-25.9,35.3c-8.7,19.3-9.9,39-3,59.1c4.4,12.9,11.7,24.2,20.7,34.4
				c11.4,12.8,24.8,23.1,39.4,31.8c20.2,12,41.8,20.6,64.4,27c14.4,4.1,28.9,7.1,43.7,9.3c14.7,2.2,29.5,3.6,44.3,4.1
				c13.7,0.4,27.3,0.3,41-0.7c11.3-0.8,22.5-2,33.6-3.7c15.6-2.4,31-5.8,46.1-10.4c19.1-5.7,37.5-13.1,54.9-22.9
				c15.4-8.6,29.5-18.9,41.6-31.8c9.8-10.4,17.8-22.1,22.7-35.6c4.5-12.2,6-24.7,4.3-37.6c-1.7-12.8-6.5-24.6-13.5-35.4
				c-8.5-13.2-19.4-24.1-31.8-33.6c-16.7-12.8-35.1-22.5-54.7-30.1c-31.3-12.2-63.8-19-97.2-21.7
				C355.2,127.7,344.2,127.5,338.4,127.2z"/>
			
				<linearGradient id="SVGID_00000021114003918182314000000007284855505366596528_" gradientUnits="userSpaceOnUse" x1="155.3737" y1="259.7367" x2="510.2293" y2="259.7367">
				<stop  offset="0" style="stop-color:#FFFFFF"/>
				<stop  offset="1" style="stop-color:#000000"/>
			</linearGradient>
			<path style="fill:url(#SVGID_00000021114003918182314000000007284855505366596528_);" d="M332.8,361.6
				c-22.9,0.3-45.5-2.2-67.7-7.5c-20-4.7-39.2-11.6-57.1-21.8c-13.1-7.5-25.1-16.4-34.9-28c-6.4-7.6-11.5-15.9-14.6-25.4
				c-5.3-16.3-3.8-32,3.8-47.2c5.7-11.5,14-20.9,23.7-29.1c11.1-9.4,23.4-16.7,36.6-22.7c16.8-7.6,34.3-12.9,52.3-16.5
				c12.4-2.4,24.8-4.2,37.4-4.9c7.6-0.4,15.3-0.8,22.9-0.7c12.7,0,25.3,1,37.8,2.7c14.4,1.9,28.5,4.9,42.4,9.1
				c19.3,5.9,37.7,13.8,54.3,25.4c10.9,7.6,20.6,16.4,28.1,27.4c5.9,8.5,9.9,17.7,11.6,28c1.9,11.1,0.4,21.9-3.7,32.3
				c-4.8,11.9-12.4,21.8-21.7,30.5c-9.7,9.1-20.6,16.3-32.4,22.4c-19.6,10.2-40.4,16.7-62,20.9c-14.2,2.8-28.6,4.5-43.1,5.1
				C342.2,361.8,337.5,361.6,332.8,361.6z M332.9,331.4c6.4-0.4,12.8-0.6,19.2-1.1c15.7-1.3,31.1-4.4,46-9.7c11.8-4.2,23-9.5,33-17
				c8.2-6.1,15.3-13.2,20.3-22.2c3.7-6.7,5.9-13.8,5.9-21.4c0-7.7-2-14.9-5.8-21.7c-4.7-8.6-11.4-15.4-19.1-21.3
				c-12.4-9.5-26.4-15.8-41.3-20.3c-22.6-6.8-45.7-9.2-69.2-8c-13.3,0.7-26.3,2.5-39.2,5.8c-14.6,3.7-28.6,9-41.4,17
				c-8.5,5.3-16.1,11.5-22.2,19.5c-5.3,6.9-9,14.4-10.2,23.1c-1.4,10,0.8,19.4,5.8,28.1c4.8,8.3,11.4,15,19,20.8
				c11.5,8.7,24.4,14.7,38.1,19.1C291.7,328.4,312.1,331.2,332.9,331.4z"/>
			
				<linearGradient id="SVGID_00000015347553261967657300000006096228878110086072_" gradientUnits="userSpaceOnUse" x1="262.0914" y1="259.774" x2="404.0034" y2="259.774">
				<stop  offset="0" style="stop-color:#FFFFFF"/>
				<stop  offset="1" style="stop-color:#000000"/>
			</linearGradient>
			<path style="fill:url(#SVGID_00000015347553261967657300000006096228878110086072_);" d="M332.9,300.6
				c-14.2-0.2-28.3-2.3-41.6-7.9c-7.5-3.1-14.4-7.2-20.2-13.1c-3.1-3.2-5.7-6.8-7.3-11c-2.9-7.7-2.1-15.1,2.1-22.2
				c3.8-6.3,9.3-10.9,15.5-14.7c9.8-5.9,20.5-9.2,31.7-11.1c9.7-1.7,19.5-2,29.3-1.3c13.5,1.1,26.4,4,38.5,10.4
				c6.6,3.5,12.6,7.8,17.2,13.9c3,3.9,5,8.3,5.7,13.3c0.8,6.3-1,11.9-4.3,17.2c-3.7,5.7-8.7,9.9-14.4,13.4
				c-9.1,5.6-19,8.9-29.5,10.9C348.1,299.9,340.6,300.5,332.9,300.6z"/>
		</g>
		<g>
			
				<linearGradient id="SVGID_00000080172735274902606830000014604518590018065853_" gradientUnits="userSpaceOnUse" x1="162.2189" y1="394.6861" x2="489.9652" y2="66.9398" gradientTransform="matrix(1 0 0 1 7 29)">
				<stop  offset="0" style="stop-color:#A78BFA"/>
				<stop  offset="1" style="stop-color:#7C6FCD"/>
			</linearGradient>
			<path style="fill:url(#SVGID_00000080172735274902606830000014604518590018065853_);" d="M333.1,423.1c-20.4,0-40.7-1.3-61-3.9
				c-29.5-3.7-58.5-10.1-86.6-19.9c-23.5-8.2-45.8-18.6-66.6-32.2c-14.4-9.5-27.7-20.3-39.1-33.3c-11.8-13.3-21-28-26.4-45.1
				c-5.1-16.3-5.9-32.7-2.2-49.4c3.2-14.4,9.4-27.5,17.7-39.6c11.1-16.1,25.1-29.4,40.9-40.8c18.9-13.7,39.4-24.5,61.1-33.1
				c23-9.1,46.7-15.8,70.9-20.5c35.5-6.9,71.3-9.6,107.5-8.4c24.5,0.8,48.9,3.4,73,8c18.8,3.6,37.3,8.3,55.5,14.5
				c26.2,8.9,51.2,20.5,74,36.3c16.8,11.6,31.8,25,43.8,41.6c8.9,12.3,15.6,25.7,19.1,40.6c3.6,15.3,3.5,30.6-0.5,45.8
				c-4.3,16.7-12.5,31.4-23.3,44.8c-11.4,14.1-25,25.9-40,36.2c-19.2,13.1-39.9,23.4-61.6,31.5c-24,9-48.8,15.5-74.1,19.9
				c-19.2,3.3-38.6,5.5-58.1,6.4C349.1,422.8,341.1,422.9,333.1,423.1z M338.4,127.2c-18.9,0.1-32.5,0.8-46,2.1
				c-16.6,1.7-33,4.5-49.2,8.4c-22.1,5.4-43.5,12.8-63.8,23.2c-15.9,8.2-30.8,17.9-43.8,30.3c-10.8,10.2-19.8,21.7-25.9,35.3
				c-8.7,19.3-9.9,39-3,59.1c4.4,12.9,11.7,24.2,20.7,34.4c11.4,12.8,24.8,23.1,39.4,31.8c20.2,12,41.8,20.6,64.4,27
				c14.4,4.1,28.9,7.1,43.7,9.3c14.7,2.2,29.5,3.6,44.3,4.1c13.7,0.4,27.3,0.3,41-0.7c11.3-0.8,22.5-2,33.6-3.7
				c15.6-2.4,31-5.8,46.1-10.4c19.1-5.7,37.5-13.1,54.9-22.9c15.4-8.6,29.5-18.9,41.6-31.8c9.8-10.4,17.8-22.1,22.7-35.6
				c4.5-12.2,6-24.7,4.3-37.6c-1.7-12.8-6.5-24.6-13.5-35.4c-8.5-13.2-19.4-24.1-31.8-33.6c-16.7-12.8-35.1-22.5-54.7-30.1
				c-31.3-12.2-63.8-19-97.2-21.7C355.2,127.7,344.2,127.5,338.4,127.2z"/>
			
				<linearGradient id="SVGID_00000123415157549849962400000001422039773331291284_" gradientUnits="userSpaceOnUse" x1="162.1097" y1="394.5475" x2="489.8146" y2="66.8427" gradientTransform="matrix(1 0 0 1 7 29)">
				<stop  offset="0" style="stop-color:#A78BFA"/>
				<stop  offset="1" style="stop-color:#7C6FCD"/>
			</linearGradient>
			<path style="fill:url(#SVGID_00000123415157549849962400000001422039773331291284_);" d="M332.8,361.6
				c-22.9,0.3-45.5-2.2-67.7-7.5c-20-4.7-39.2-11.6-57.1-21.8c-13.1-7.5-25.1-16.4-34.9-28c-6.4-7.6-11.5-15.9-14.6-25.4
				c-5.3-16.3-3.8-32,3.8-47.2c5.7-11.5,14-20.9,23.7-29.1c11.1-9.4,23.4-16.7,36.6-22.7c16.8-7.6,34.3-12.9,52.3-16.5
				c12.4-2.4,24.8-4.2,37.4-4.9c7.6-0.4,15.3-0.8,22.9-0.7c12.7,0,25.3,1,37.8,2.7c14.4,1.9,28.5,4.9,42.4,9.1
				c19.3,5.9,37.7,13.8,54.3,25.4c10.9,7.6,20.6,16.4,28.1,27.4c5.9,8.5,9.9,17.7,11.6,28c1.9,11.1,0.4,21.9-3.7,32.3
				c-4.8,11.9-12.4,21.8-21.7,30.5c-9.7,9.1-20.6,16.3-32.4,22.4c-19.6,10.2-40.4,16.7-62,20.9c-14.2,2.8-28.6,4.5-43.1,5.1
				C342.2,361.8,337.5,361.6,332.8,361.6z M332.9,331.4c6.4-0.4,12.8-0.6,19.2-1.1c15.7-1.3,31.1-4.4,46-9.7c11.8-4.2,23-9.5,33-17
				c8.2-6.1,15.3-13.2,20.3-22.2c3.7-6.7,5.9-13.8,5.9-21.4c0-7.7-2-14.9-5.8-21.7c-4.7-8.6-11.4-15.4-19.1-21.3
				c-12.4-9.5-26.4-15.8-41.3-20.3c-22.6-6.8-45.7-9.2-69.2-8c-13.3,0.7-26.3,2.5-39.2,5.8c-14.6,3.7-28.6,9-41.4,17
				c-8.5,5.3-16.1,11.5-22.2,19.5c-5.3,6.9-9,14.4-10.2,23.1c-1.4,10,0.8,19.4,5.8,28.1c4.8,8.3,11.4,15,19,20.8
				c11.5,8.7,24.4,14.7,38.1,19.1C291.7,328.4,312.1,331.2,332.9,331.4z"/>
			
				<linearGradient id="SVGID_00000137091673060769109970000012765139271605297831_" gradientUnits="userSpaceOnUse" x1="162.1769" y1="394.6147" x2="489.8818" y2="66.9099" gradientTransform="matrix(1 0 0 1 7 29)">
				<stop  offset="0" style="stop-color:#A78BFA"/>
				<stop  offset="1" style="stop-color:#7C6FCD"/>
			</linearGradient>
			<path style="fill:url(#SVGID_00000137091673060769109970000012765139271605297831_);" d="M332.9,300.6
				c-14.2-0.2-28.3-2.3-41.6-7.9c-7.5-3.1-14.4-7.2-20.2-13.1c-3.1-3.2-5.7-6.8-7.3-11c-2.9-7.7-2.1-15.1,2.1-22.2
				c3.8-6.3,9.3-10.9,15.5-14.7c9.8-5.9,20.5-9.2,31.7-11.1c9.7-1.7,19.5-2,29.3-1.3c13.5,1.1,26.4,4,38.5,10.4
				c6.6,3.5,12.6,7.8,17.2,13.9c3,3.9,5,8.3,5.7,13.3c0.8,6.3-1,11.9-4.3,17.2c-3.7,5.7-8.7,9.9-14.4,13.4
				c-9.1,5.6-19,8.9-29.5,10.9C348.1,299.9,340.6,300.5,332.9,300.6z"/>
		</g>
	</g>
	<g class="st6">
		<path class="st7" d="M874.7,402.3c-35.8,0-66.5-5.6-91.9-16.9c-25.4-11.2-44.9-27.3-58.3-48.1c-13.5-20.8-20.2-45.8-20.2-75
			c0-29.4,6.7-54.6,20.2-75.4s32.9-36.9,58.3-48.1c25.4-11.2,56-16.9,91.9-16.9c36.1,0,66.8,5.6,92.1,16.9
			c25.3,11.2,44.6,27.3,58.1,48.1s20.2,46,20.2,75.4c0,29.2-6.7,54.2-20.2,75s-32.8,36.9-58.1,48.1
			C941.5,396.7,910.9,402.3,874.7,402.3z M874.7,354.4c22.2,0,41.7-3.3,58.5-10s30-16.8,39.6-30.4s14.4-30.8,14.4-51.7
			c0-20.8-4.8-38.1-14.4-51.7c-9.6-13.6-22.8-23.8-39.6-30.6s-36.3-10.2-58.5-10.2c-21.9,0-41.5,3.4-58.7,10.2s-30.7,17-40.4,30.6
			S761,241.4,761,262.3c0,20.8,4.9,38.1,14.6,51.7c9.7,13.6,23.2,23.7,40.4,30.4C833.2,351.1,852.8,354.4,874.7,354.4z"/>
		<path class="st7" d="M1092.2,189.8h51.7l2.5,55v235.4h-54.2V189.8z M1243.1,401.9c-18.3,0-34-3.3-46.9-9.8s-23.4-15.1-31.5-25.8
			c-8.1-10.7-14-22.4-17.9-35.2c-3.9-12.8-5.8-25.3-5.8-37.5c0-15.3,1.9-29.4,5.6-42.5s9.6-24.5,17.7-34.4s18.5-17.6,31.5-23.1
			c12.9-5.6,28.7-8.3,47.3-8.3c20.8,0,39.6,4.6,56.2,13.7s29.9,21.9,39.8,38.1s14.8,35.1,14.8,56.5c0,21.9-5,41-15,57.3
			c-10,16.2-23.3,28.8-40,37.7C1282.2,397.5,1263.6,401.9,1243.1,401.9z M1225.6,359.8c14.7,0,27.6-2.8,38.5-8.3
			c11-5.6,19.4-13.3,25.4-23.1c6-9.9,9-21.5,9-34.8c0-20-6.3-36.1-19-48.3c-12.6-12.2-30.6-18.3-54-18.3c-14.7,0-28.1,2.6-40.2,7.9
			c-12.1,5.3-21.6,12.9-28.5,22.7c-6.9,9.9-10.4,21.9-10.4,36c0,13.3,3.2,24.9,9.6,34.8s15.6,17.6,27.5,23.1
			C1195.4,357.1,1209.4,359.8,1225.6,359.8z"/>
		<path class="st7" d="M1582.6,328.2h52.5c-2.2,14.2-8.1,26.8-17.7,37.9s-22.6,19.9-39,26.2c-16.4,6.4-36.4,9.6-60,9.6
			c-26.4,0-49.7-4.2-70-12.7s-36.1-20.8-47.5-36.9s-17.1-35.6-17.1-58.3c0-22.8,5.6-42.3,16.7-58.5s26.6-28.7,46.5-37.3
			s43.1-12.9,69.8-12.9c27.2,0,49.9,4.3,67.9,12.9c18.1,8.6,31.5,21.6,40.2,39c8.8,17.4,12.4,39.5,11,66.5h-197.5
			c1.4,10.6,5.3,20.1,11.9,28.7c6.5,8.6,15.4,15.4,26.7,20.4c11.2,5,24.6,7.5,40.2,7.5c17.2,0,31.6-3,43.1-9
			C1571.8,345.3,1579.3,337.6,1582.6,328.2z M1514.3,226.5c-20,0-36.2,4.4-48.7,13.1c-12.5,8.8-20.6,19.5-24.2,32.3h140.8
			c-1.4-13.9-8-24.9-19.8-33.1C1550.6,230.6,1534.6,226.5,1514.3,226.5z"/>
		<path class="st7" d="M1676.4,189.8h54.2v207.1h-54.2V189.8z M1826.8,185.3c12.8,0,24.6,1.7,35.4,5s20.3,8.5,28.3,15.4
			c8.1,6.9,14.3,15.8,18.7,26.5c4.4,10.7,6.7,23.4,6.7,38.1V397h-54.2V279.8c0-17.5-4.2-30.3-12.7-38.5s-22.3-12.3-41.5-12.3
			c-14.4,0-27.5,2.8-39.2,8.3c-11.7,5.6-21.1,12.6-28.3,21c-7.2,8.5-11.4,17.3-12.5,26.5l-0.4-21.2c1.4-9.7,4.6-19.2,9.6-28.3
			c5-9.2,11.7-17.6,20.2-25.2c8.5-7.6,18.5-13.7,30.2-18.1C1798.8,187.5,1812,185.3,1826.8,185.3z"/>
		<path class="st7" d="M2286.7,299.8c-2.5,21.7-10.1,40.1-22.9,55.4c-12.8,15.3-30.1,26.9-52.1,35c-21.9,8.1-48.1,12.1-78.3,12.1
			c-25.3,0-48.4-2.9-69.4-8.7c-21-5.8-39-14.6-54.2-26.2c-15.1-11.7-26.9-26.2-35.2-43.5c-8.3-17.4-12.5-37.7-12.5-61
			s4.2-43.7,12.5-61.2s20.1-32.1,35.2-44c15.1-11.8,33.2-20.7,54.2-26.7s44.1-9,69.4-9c30.3,0,56.5,4.2,78.5,12.5
			c22.1,8.3,39.5,20.2,52.3,35.6s20.3,34.1,22.5,56h-55c-3.6-11.7-9.7-21.7-18.1-30.2c-8.5-8.5-19.4-14.9-32.7-19.4
			c-13.3-4.4-29.2-6.7-47.5-6.7c-22.8,0-42.8,3.5-60,10.6s-30.6,17.5-40,31.2s-14.2,30.8-14.2,51c0,20,4.7,36.8,14.2,50.4
			c9.4,13.6,22.8,24,40,31c17.2,7.1,37.2,10.6,60,10.6c18.3,0,34.1-2.2,47.3-6.7c13.2-4.4,24-10.8,32.5-19.2
			c8.5-8.3,14.6-18.1,18.5-29.2h55V299.8z"/>
		<path class="st7" d="M2455.9,401.9c-26.1,0-49.1-4.2-69-12.5s-35.3-20.5-46.5-36.5c-11.1-16-16.7-35.6-16.7-59
			c0-23.3,5.6-43.1,16.7-59.4c11.1-16.2,26.6-28.5,46.5-36.9c19.9-8.3,42.8-12.5,69-12.5c26.1,0,49,4.2,68.5,12.5
			c19.6,8.3,34.9,20.6,46,36.9c11.1,16.2,16.7,36,16.7,59.4c0,23.3-5.6,43-16.7,59c-11.1,16-26.5,28.1-46,36.5
			C2504.8,397.7,2482,401.9,2455.9,401.9z M2455.9,360.2c14.4,0,27.4-2.6,39-7.7c11.5-5.1,20.6-12.6,27.3-22.5s10-21.9,10-36
			c0-14.2-3.3-26.3-10-36.5c-6.7-10.1-15.7-17.8-27.1-23.1c-11.4-5.3-24.4-7.9-39.2-7.9c-14.4,0-27.5,2.6-39.2,7.9
			c-11.7,5.3-20.9,12.9-27.7,22.9s-10.2,22.2-10.2,36.7c0,14.2,3.3,26.2,10,36c6.7,9.9,15.8,17.4,27.5,22.5
			C2428,357.7,2441.2,360.2,2455.9,360.2z"/>
		<path class="st7" d="M2627.1,189.8h54.2v207.1h-54.2V189.8z M2760.9,234.4c-15.6,0-29,3-40.4,9s-20.6,13.3-27.5,21.9
			s-11.8,16.9-14.6,25l-0.4-22.9c0.3-3.3,1.4-8.3,3.3-14.8c1.9-6.5,4.9-13.6,8.7-21.2c3.9-7.6,9-15,15.4-22.1s14.2-12.8,23.3-17.3
			c9.2-4.4,19.9-6.7,32.1-6.7L2760.9,234.4L2760.9,234.4z"/>
		<path class="st7" d="M2982.9,328.2h52.5c-2.2,14.2-8.1,26.8-17.7,37.9c-9.6,11.1-22.6,19.9-39,26.2c-16.4,6.4-36.4,9.6-60,9.6
			c-26.4,0-49.7-4.2-70-12.7s-36.1-20.8-47.5-36.9s-17.1-35.6-17.1-58.3c0-22.8,5.6-42.3,16.7-58.5c11.1-16.2,26.6-28.7,46.5-37.3
			s43.1-12.9,69.8-12.9c27.2,0,49.9,4.3,67.9,12.9c18.1,8.6,31.5,21.6,40.2,39c8.8,17.4,12.4,39.5,11,66.5h-197.5
			c1.4,10.6,5.3,20.1,11.9,28.7c6.5,8.6,15.4,15.4,26.7,20.4c11.2,5,24.6,7.5,40.2,7.5c17.2,0,31.6-3,43.1-9
			C2972.1,345.3,2979.6,337.6,2982.9,328.2z M2914.6,226.5c-20,0-36.2,4.4-48.7,13.1c-12.5,8.8-20.6,19.5-24.2,32.3h140.8
			c-1.4-13.9-8-24.9-19.8-33.1C2950.9,230.6,2934.9,226.5,2914.6,226.5z"/>
	</g>
</g>
</svg>
